<svg xmlns="http://www.w3.org/2000/svg" viewBox="0 0 407.01 74.14"><g id="レイヤー_2" data-name="レイヤー 2"><g id="レイヤー_2-2" data-name="レイヤー 2"><path d="M8.17,51.68c3.62-.16,5.82,1.82,5.82,5,0,2.48-1.42,4-3.62,5.62C8.8,63.4,7.54,64.56,7.54,66.38c0,3.46,5.19,6.27,15.41,5.45,12.26-1.16,24-8.1,32.69-14.37A25.2,25.2,0,0,1,47,38.8c0-9.9,7.39-17.67,18.71-17.34,8.48.17,14.45,7.44,16.34,11.89,2-2.14,5.5-5.44,7.39-7.26,8.33-7.93,15.56-14.53,23.42-19,6-3.47,12.88-6.27,19-6.27a8.39,8.39,0,0,1,5.5,1.65c.95.82,1.57,2,1.1,2.31-.31.16-.63-.33-1.73-1.16a6.72,6.72,0,0,0-3.45-1,7.59,7.59,0,0,0-5,1.82c-3.46,3-9.12,10.07-12.73,15.52-9.75,14.2-20.43,31.21-29.39,46.56a23.11,23.11,0,0,0,8.8-2.81,51.73,51.73,0,0,0,9.9-7.59c.79-.83,1.26-.83,1.57-.5s-.16,1-1.26,2.15a47.54,47.54,0,0,1-9.74,7.43,24.59,24.59,0,0,1-10.06,3c-2.2,2.48-3.77,3.64-6.13,4.13-4.56,1-4.4-1.15-3.77-2.31l1.26-2.48a45,45,0,0,1-10.22-3,34.16,34.16,0,0,1-9.27-5.78c-6,4.46-20,14-34.74,15.19C10.22,75,0,71,0,61.75,0,56,4.09,52,8.17,51.68ZM52.81,39.13A25.5,25.5,0,0,0,58,55.48c3.3-2.81,7.23-6.27,11.48-10.24,3.77-3.47,7.38-7.1,11.16-10.57-3.15-6.1-8.33-10.73-14.93-10.73C57.52,23.94,53.12,31.37,52.81,39.13ZM67.27,62.74a43,43,0,0,0,10.21,3.14c1.26-2.31,4.09-6.77,4.72-7.92,1.1-2.32,1.41-7.6,1.1-12.22a35.24,35.24,0,0,0-1.89-9.58l-11,10.57C66.17,50.69,62.55,54,59.09,57A29.37,29.37,0,0,0,67.27,62.74Zm36.15-36.32C113,13.21,121.49,6.11,128.72,2.48V2.31c-3.62.33-9.43,2.48-14.93,5.78-7.39,4.46-14.93,11.06-21.06,17-3.46,3.3-6.6,6.44-9.9,9.74a39.15,39.15,0,0,1,2,10.73,45.56,45.56,0,0,1-.47,9.25C88,48.87,97.91,33.85,103.42,26.42Z"/><path d="M105.77,57.13c-1.1,1-1.58,1.16-1.89.83s0-1,1.1-2l11.47-10.73c-2,0-3.77.17-5.66.17-1.1,0-1.88,0-1.72-.83.15-.66,1.72-.82,4.24-1,2-.16,3.77-.16,4.4-.16a221.68,221.68,0,0,1,14.77-17.18c2.83-3,6.6-6.77,9.91-6.77,1.57,0,2.2.5,2.35,1-1.88,1.82-6,6.44-9.58,10.74s-6.45,7.92-9.59,12.22c3.61-.17,6.44-.17,9-.17,1.25,0,2.35.17,2.2,1-.16,1-1.57.83-2.83.83-3.46,0-6,0-9.59.16A124.67,124.67,0,0,0,113,63.4c-1,1.82-1.42,4.13-.16,4.79.94.5,2.67,0,3.93-.66a41.83,41.83,0,0,0,7.07-5c2.83-2.31,5.5-4.79,7.39-6.61.78-.66,1.73-1.65,2.2-1.15.31.33,0,.82-1.1,2a123,123,0,0,1-9.59,8.75c-2.83,2.31-8.49,6.77-14.46,6.77-3.61,0-4.87-2.15-4.71-4.62.31-4.13,3.92-10.07,8.48-16.35C109.54,53.5,107.65,55.31,105.77,57.13Z"/><path d="M151,57.29a46.74,46.74,0,0,0-5.35,7.77c-.78,1.48-.78,2.64-.15,3.13s1.72.33,3.45-.66a49.4,49.4,0,0,0,7.08-5c3.45-2.81,5.34-4.46,7.38-6.44,1.1-1.16,2.05-1.65,2.36-1.32.47.49-.63,1.48-1.89,2.81-1.88,1.81-5,4.78-8.95,7.92-3.3,2.64-8.81,6.61-14,6.61-3.3,0-5-1.82-4.87-4.3.15-3.63,4.08-8.25,7.54-11.72,3.77-3.8,9.74-8.26,10.22-9.41.62-1.82-2.36-1.32-6.29-1.32a10.84,10.84,0,0,1-3.62-.33c-1.25,1.48-3.45,3.79-6,6.27l-6.28,6.11c-1.42,1.32-2,1.65-2.36,1.32s.16-1.15,1.73-2.64l6.13-5.94c2.2-2.15,4.24-4.3,5.5-5.78-1.42-1-1.57-3.31,0-5.29a7.49,7.49,0,0,1,6-2.8c1.26,0,2.67.66,2.83,1.65a17.86,17.86,0,0,0-2.67,2.31c-2.05,2.31-1.58,3.47.47,3.63,4.4.17,9,.33,9,3.3C158.26,49.7,154.48,53,151,57.29Z"/><path d="M169.81,52.51c-2.38,2-4.13,3.46-5.72,5-1.27,1.16-1.9,1.65-2.38,1.32-.31-.33,0-1,1.75-2.64a131.07,131.07,0,0,1,11.27-9.25c4.13-3,6.2-3.63,9.21-3.63,3.34,0,3.66.5,1.75,2.64-2.86,3.31-5.4,6.44-8.57,10.57a75.33,75.33,0,0,0-5.56,8.09c-.95,1.82-1.11,3-.48,3.63.8.66,2.22.33,3.81-.49a41.84,41.84,0,0,0,7-5c3.33-2.8,4.76-4.12,7.3-6.6,1.43-1.32,2.07-2,2.54-1.49s-1.27,2.15-1.74,2.64c-1.91,2-5.88,5.62-9,8.26s-8.58,6.77-13.82,6.77c-3.33,0-4.76-1.65-4.76-4.29,0-2.15,1.11-4.3,2.38-6.28a86.78,86.78,0,0,1,11.91-14.2A51.22,51.22,0,0,0,169.81,52.51ZM200,25.26c-1.9,2.65-5.87,4.46-7.46,4.46-.8-1-1-3.47-.16-5.61.95-2.48,3.34-3.14,6.35-3.14C200.93,21,201.89,22.79,200,25.26Z"/><path d="M214.67,42.77c3.3,0,4.87,2,4.72,4.45-.32,4.3-5.35,7.6-10.06,10.07a61.4,61.4,0,0,1-12.73,5.12,10.38,10.38,0,0,0-.79,3.64c0,2.8.95,5.45,6.76,5.28,6.29-.16,16-4.46,20.59-7.43,10.22-6.77,13.05-12.71,13.36-16.51a7.23,7.23,0,0,0-.63-4.29,4.13,4.13,0,0,1,2.2-.67c2.2,0,3,2.48,2.83,4.13-.31,5.12-5.34,11.4-17.45,18.83-4.24,2.64-14,7.59-22.63,7.92-8.33.33-13.2-1.48-12.88-8.75a16.28,16.28,0,0,1,3.61-8.75l-.16-.17c-.47.5-2.2,2.15-3.14,3-.79.66-1.26.82-1.57.49-.32-.49.31-1.15.94-1.82a59.16,59.16,0,0,1,5.82-4.95,67.63,67.63,0,0,1,7.7-5C204.77,45.24,210.43,42.77,214.67,42.77Zm-17.6,18a34.65,34.65,0,0,0,10.37-4.95c3.93-2.81,6.45-6.44,6.45-8.75,0-1.32-.47-2.15-1.89-2.15s-3.77,1.65-6.91,4.79A42.24,42.24,0,0,0,197.07,60.76Z"/><path d="M309.6,9.25c-18.23-.66-34.26,6.77-34.26,23.11a17.39,17.39,0,0,0,11.47,15.85c1.41.5,2,.33,1.88.83s-1.88.5-3,.17A19.18,19.18,0,0,1,272.19,32c-.47-15,11.48-26.91,35.36-26.25,10.69.33,32.22,3.3,37.25.33,2.2-1.32,4.09-2.64,5.19-2,.94.66-.47,1.32-2,3a114.81,114.81,0,0,0-11.32,13c-4.71,6.11-8,11.07-11,15H348.1A131.08,131.08,0,0,1,361.3,20.8,111.55,111.55,0,0,1,381.11,5c5-3,10.53-4.95,15.71-4.95,5.82,0,9.12,3,9.91,5.28.47,1.32.31,2.32-.16,2.48-.32.17-.32-.49-.79-1.49C404.53,3.63,402,1.65,397,1.65s-10.37,2.64-14.3,5.62c-4.09,3.13-8,6.93-14.3,14-4.09,4.62-8.8,10.73-11,13.87,4.24.16,9.74.33,12.57.66,1.26.17,3.61.33,3.61.83,0,.66-2.35.49-3.45.49-5.5,0-10.69,0-14.31.17-7.07,9.41-17.13,23.11-17.13,29.22a2.7,2.7,0,0,0,3,2.81c2.67,0,6.29-1.49,11.16-5.12,2.2-1.65,6.6-5.61,9-7.76.94-.83,1.57-1.16,1.88-.83s0,.83-.94,1.82c-2,2-6.6,6.11-9.12,8.09-2.35,1.82-8.48,6.61-14.61,6.61-4.56,0-7.55-2.48-7.55-7.27,0-8.59,11-22.62,14.93-27.57l-22.16.16C309,57.13,295,74.14,272.66,74.14c-7.54,0-15.71-3.47-15.71-12.88,0-4.46,3.45-8.75,8.17-8.59a5.27,5.27,0,0,1,5,6.11,7.5,7.5,0,0,1-2.52,4.95,5.53,5.53,0,0,0-2,4.13c0,3.47,4.56,4.79,7.86,4.79,16.82,0,32.06-23.11,41-35.17-2.51,0-6.13.17-11.63.33-1.1,0-3.3.17-3-.82.16-.66,2.36-.83,4.56-1,2.83-.33,7.07-.5,11.63-.67,8.33-10.56,20.75-22.95,27.19-27.4C337.26,10.24,326.57,9.91,309.6,9.25Z"/></g></g></svg>