<svg id="レイヤー_2" data-name="レイヤー 2" xmlns="http://www.w3.org/2000/svg" viewBox="0 0 407.01 74.14"><path d="M498.17,364.34c3.61-.16,5.81,1.82,5.81,5,0,2.47-1.41,4-3.61,5.61-1.57,1.16-2.83,2.31-2.83,4.13,0,3.47,5.19,6.27,15.4,5.45,12.26-1.16,24-8.09,32.69-14.37A25.17,25.17,0,0,1,537,351.47c0-9.91,7.39-17.67,18.7-17.34,8.49.16,14.46,7.43,16.35,11.89,2-2.15,5.5-5.45,7.38-7.27,8.33-7.92,15.56-14.53,23.42-19,6-3.46,12.89-6.27,19-6.27a8.44,8.44,0,0,1,5.5,1.65c.94.83,1.57,2,1.1,2.31-.32.17-.63-.33-1.73-1.15a6.66,6.66,0,0,0-3.46-1,7.58,7.58,0,0,0-5,1.81c-3.45,3-9.11,10.07-12.73,15.52-9.74,14.2-20.43,31.21-29.39,46.57a23.36,23.36,0,0,0,8.8-2.81,52.25,52.25,0,0,0,9.91-7.6c.78-.82,1.25-.82,1.57-.49s-.16,1-1.26,2.14a47.46,47.46,0,0,1-9.74,7.43,24.81,24.81,0,0,1-10.06,3c-2.2,2.47-3.77,3.63-6.13,4.12-4.56,1-4.4-1.15-3.77-2.31l1.25-2.47a45,45,0,0,1-10.21-3,33.9,33.9,0,0,1-9.28-5.78c-6,4.46-20,14-34.73,15.19-12.26,1-22.47-3-22.47-12.21C490,368.64,494.08,364.67,498.17,364.34ZM542.8,351.8A25.55,25.55,0,0,0,548,368.14c3.3-2.81,7.23-6.27,11.47-10.23,3.78-3.47,7.39-7.11,11.16-10.57-3.14-6.11-8.33-10.73-14.93-10.73C547.52,336.61,543.12,344,542.8,351.8Zm14.46,23.61a43.69,43.69,0,0,0,10.22,3.13c1.26-2.31,4.09-6.77,4.71-7.92,1.1-2.31,1.42-7.6,1.1-12.22a35,35,0,0,0-1.88-9.58l-11,10.57c-4.25,4-7.86,7.27-11.32,10.24A29.88,29.88,0,0,0,557.26,375.41Zm36.15-36.33c9.59-13.21,18.08-20.31,25.3-23.94V315c-3.61.34-9.42,2.48-14.93,5.78-7.38,4.46-14.93,11.07-21.06,17-3.45,3.3-6.6,6.44-9.9,9.74a39.16,39.16,0,0,1,2,10.74,45.47,45.47,0,0,1-.48,9.24C578,361.54,587.91,346.51,593.41,339.08Z" transform="translate(-490 -312.66)"/><path d="M595.76,369.79c-1.1,1-1.57,1.16-1.88.83s0-1,1.1-2l11.47-10.73c-2,0-3.77.16-5.66.16-1.1,0-1.88,0-1.73-.83.16-.66,1.73-.82,4.25-1,2-.16,3.77-.16,4.4-.16a219.42,219.42,0,0,1,14.77-17.17c2.83-3,6.6-6.77,9.9-6.77,1.57,0,2.2.49,2.36,1-1.89,1.81-6,6.44-9.59,10.73s-6.44,7.93-9.59,12.22c3.62-.17,6.45-.17,9-.17,1.26,0,2.36.17,2.2,1-.15,1-1.57.83-2.83.83-3.45,0-6,0-9.58.17A123.61,123.61,0,0,0,603,376.07c-.94,1.81-1.41,4.13-.16,4.79.95.49,2.68,0,3.93-.66a42,42,0,0,0,7.08-5c2.83-2.31,5.5-4.79,7.38-6.6.79-.66,1.73-1.65,2.2-1.16.32.33,0,.83-1.1,2a122.65,122.65,0,0,1-9.58,8.75c-2.83,2.32-8.49,6.77-14.46,6.77-3.62,0-4.88-2.14-4.72-4.62.32-4.13,3.93-10.07,8.49-16.35C599.53,366.16,597.65,368,595.76,369.79Z" transform="translate(-490 -312.66)"/><path d="M641,370a46.55,46.55,0,0,0-5.34,7.76c-.79,1.49-.79,2.64-.16,3.14s1.73.33,3.46-.66a49,49,0,0,0,7.07-5c3.46-2.8,5.35-4.46,7.39-6.44,1.1-1.15,2-1.65,2.36-1.32.47.5-.63,1.49-1.89,2.81-1.89,1.81-5,4.79-9,7.92-3.3,2.65-8.8,6.61-14,6.61-3.3,0-5-1.82-4.87-4.29.16-3.64,4.09-8.26,7.55-11.73,3.77-3.8,9.74-8.25,10.21-9.41.63-1.81-2.36-1.32-6.28-1.32a10.81,10.81,0,0,1-3.62-.33c-1.26,1.49-3.46,3.8-6,6.27l-6.29,6.11c-1.41,1.32-2,1.65-2.36,1.32s.16-1.15,1.73-2.64l6.13-5.94c2.2-2.15,4.25-4.29,5.5-5.78-1.41-1-1.57-3.3,0-5.28a7.51,7.51,0,0,1,6-2.81c1.25,0,2.67.66,2.82,1.65a19,19,0,0,0-2.67,2.31c-2,2.31-1.57,3.47.47,3.63,4.4.17,9,.33,9,3.31C648.25,362.36,644.48,365.67,641,370Z" transform="translate(-490 -312.66)"/><path d="M659.72,365.17c-2.35,2-4.08,3.47-5.65,4.95-1.26,1.16-1.89,1.65-2.36,1.32s0-1,1.73-2.64a126.86,126.86,0,0,1,11.16-9.24c4.08-3,6.12-3.64,9.11-3.64,3.3,0,3.62.5,1.73,2.65-2.83,3.3-5.34,6.43-8.49,10.56a77.13,77.13,0,0,0-5.5,8.09c-.94,1.82-1.1,3-.47,3.64.79.66,2.2.33,3.77-.5a41.29,41.29,0,0,0,6.92-4.95c3.3-2.81,4.71-4.13,7.23-6.61,1.41-1.32,2-2,2.51-1.48s-1.26,2.14-1.73,2.64c-1.88,2-5.81,5.61-9,8.25S662.24,385,657.05,385c-3.3,0-4.71-1.65-4.71-4.29,0-2.15,1.1-4.29,2.35-6.27a86.47,86.47,0,0,1,11.79-14.2A49.74,49.74,0,0,0,659.72,365.17Zm29.86-27.24c-1.88,2.64-5.81,4.45-7.38,4.45-.79-1-1-3.46-.16-5.61.94-2.48,3.3-3.14,6.29-3.14C690.53,333.63,691.47,335.45,689.58,337.93Z" transform="translate(-490 -312.66)"/><path d="M704.67,355.43c3.3,0,4.87,2,4.71,4.46-.31,4.29-5.34,7.59-10,10.07a62.19,62.19,0,0,1-12.73,5.12,10.05,10.05,0,0,0-.79,3.63c0,2.81.94,5.45,6.76,5.28,6.28-.16,16-4.45,20.59-7.43,10.21-6.77,13-12.71,13.36-16.51a7.33,7.33,0,0,0-.63-4.29,4.08,4.08,0,0,1,2.2-.66c2.2,0,3,2.48,2.83,4.13-.32,5.11-5.35,11.39-17.45,18.82-4.24,2.64-14,7.59-22.63,7.92-8.33.33-13.2-1.48-12.89-8.75a16.3,16.3,0,0,1,3.62-8.75l-.16-.16c-.47.49-2.2,2.14-3.14,3-.79.66-1.26.82-1.58.49-.31-.49.32-1.15.95-1.81a59.09,59.09,0,0,1,5.81-5,69.48,69.48,0,0,1,7.7-4.95C694.77,357.91,700.43,355.43,704.67,355.43Zm-17.6,18a34.94,34.94,0,0,0,10.37-5c3.93-2.8,6.44-6.44,6.44-8.75,0-1.32-.47-2.14-1.88-2.14s-3.77,1.65-6.92,4.78A42.28,42.28,0,0,0,687.07,373.43Z" transform="translate(-490 -312.66)"/><path d="M799.59,321.91c-18.23-.66-34.26,6.77-34.26,23.12a17.4,17.4,0,0,0,11.47,15.85c1.42.49,2.05.33,1.89.82s-1.89.5-3,.17a19.16,19.16,0,0,1-13.51-17.17c-.47-15,11.47-26.92,35.36-26.26,10.69.33,32.22,3.31,37.25.33,2.2-1.32,4.08-2.64,5.19-2,.94.66-.48,1.32-2,3a114.93,114.93,0,0,0-11.31,13.05c-4.72,6.11-8,11.06-11,15H838.1a130.23,130.23,0,0,1,13.2-14.36,110.62,110.62,0,0,1,19.8-15.85c5-3,10.53-5,15.72-5,5.82,0,9.12,3,9.9,5.29.47,1.32.32,2.31-.16,2.47-.31.17-.31-.49-.78-1.48-1.26-2.64-3.77-4.63-8.8-4.63s-10.38,2.65-14.3,5.62c-4.09,3.14-8,6.93-14.31,14-4.08,4.63-8.8,10.74-11,13.87,4.25.17,9.75.33,12.58.66,1.25.17,3.61.33,3.61.83,0,.66-2.36.49-3.46.49-5.5,0-10.68,0-14.3.17-7.07,9.41-17.13,23.12-17.13,29.23a2.69,2.69,0,0,0,3,2.8c2.67,0,6.28-1.48,11.15-5.12,2.2-1.65,6.61-5.61,9-7.76,1-.82,1.57-1.15,1.89-.82s0,.82-.94,1.81c-2.05,2-6.61,6.11-9.12,8.09-2.36,1.82-8.49,6.61-14.62,6.61-4.55,0-7.54-2.48-7.54-7.27,0-8.58,11-22.62,14.93-27.57l-22.16.16C799,369.79,785,386.8,762.66,386.8c-7.54,0-15.72-3.47-15.72-12.88,0-4.46,3.46-8.75,8.18-8.59a5.27,5.27,0,0,1,5,6.11,7.49,7.49,0,0,1-2.51,5,5.5,5.5,0,0,0-2,4.13c0,3.46,4.55,4.78,7.86,4.78,16.81,0,32.06-23.11,41-35.17-2.52,0-6.13.17-11.63.33-1.1,0-3.3.17-3-.82.16-.66,2.36-.83,4.56-1,2.83-.33,7.07-.5,11.63-.66,8.33-10.57,20.74-22.95,27.19-27.41C827.25,322.9,816.57,322.57,799.59,321.91Z" transform="translate(-490 -312.66)"/></svg>