<svg xmlns="http://www.w3.org/2000/svg" viewBox="0 0 334.35 67.35"><g id="レイヤー_2" data-name="レイヤー 2"><g id="レイヤー_4" data-name="レイヤー 4"><path d="M0,59.55C.49,56,3.49,50.7,10.84,45.3c4.95-3.6,13.5-7.2,18.45-6.3,3,.45,4.05,3.15,3.15,5.7C36,41,38.59,39,41,39c3.15-.15,3.45.6,1.95,2.4-1.95,2.25-5.25,6-8.4,9.9a55.75,55.75,0,0,0-5.25,7.35c-1.05,1.8-1.05,3-.45,3.45s2.25,0,3.45-.6A46.19,46.19,0,0,0,39,56.85c3.15-2.55,5.55-4.65,7.2-6.15.9-.75,1.65-1.5,2.1-1.05s-.3,1.2-2,2.7c-2,1.8-5.55,4.95-8.4,7.2-3,2.4-8,6-12.9,6-2.85,0-4.2-1.35-4.35-3.15a8.23,8.23,0,0,1,2.1-5.4l-.15-.15c-3.9,3.45-10.8,8.4-16.5,8.7C2.89,65.7-.41,64.5,0,59.55ZM14.89,50c-6.15,6-8.7,9.9-8.4,11.85a1.72,1.72,0,0,0,1.95,1.5c2.85,0,8.55-3.3,12.6-7,4.8-4.2,10.2-10.65,10.35-13,.15-2-1.05-2.7-2.7-2.7C25.69,40.5,20.29,44.55,14.89,50Z"/><path d="M46.84,51.9c-1.05.9-1.5,1.05-1.8.75s0-.9,1.05-1.8L57,41.1c-1.95,0-3.6.15-5.4.15-1,0-1.8,0-1.65-.75s1.65-.75,4-.9c2-.15,3.6-.15,4.2-.15a203.37,203.37,0,0,1,14.1-15.6c2.7-2.7,6.3-6.15,9.45-6.15,1.5,0,2.1.45,2.25.9-1.8,1.65-5.7,5.85-9.15,9.75s-6.15,7.2-9.15,11.1c3.45-.15,6.15-.15,8.55-.15,1.2,0,2.25.15,2.1.9s-1.5.75-2.7.75c-3.3,0-5.7,0-9.15.15a112.25,112.25,0,0,0-10.8,16.5c-.9,1.65-1.35,3.75-.15,4.35.9.45,2.55,0,3.75-.6a40.26,40.26,0,0,0,6.75-4.5c2.7-2.1,5.25-4.35,7-6,.75-.6,1.65-1.5,2.1-1.05s0,.75-1,1.8A116.16,116.16,0,0,1,63,59.55c-2.7,2.1-8.1,6.15-13.8,6.15-3.45,0-4.65-2-4.5-4.2.3-3.75,3.75-9.15,8.1-14.85C50.44,48.6,48.64,50.25,46.84,51.9Z"/><path d="M90,52.05a42,42,0,0,0-5.1,7.05c-.75,1.35-.75,2.4-.15,2.85s1.65.3,3.3-.6a47.43,47.43,0,0,0,6.75-4.5c3.3-2.55,5.1-4.05,7-5.85,1-1,2-1.5,2.25-1.2.45.45-.6,1.35-1.8,2.55-1.8,1.65-4.8,4.35-8.55,7.2-3.15,2.4-8.4,6-13.35,6-3.15,0-4.8-1.65-4.65-3.9.15-3.3,3.9-7.5,7.2-10.65,3.6-3.45,9.3-7.5,9.75-8.55.6-1.65-2.25-1.2-6-1.2a10.79,10.79,0,0,1-3.45-.3c-1.2,1.35-3.3,3.45-5.7,5.7l-6,5.55c-1.35,1.2-2,1.5-2.25,1.2s.15-1,1.65-2.4l5.85-5.4c2.1-2,4-3.9,5.25-5.25-1.35-.9-1.5-3,0-4.8A7.32,7.32,0,0,1,87.79,33c1.2,0,2.55.6,2.7,1.5a17.27,17.27,0,0,0-2.55,2.1c-2,2.1-1.5,3.15.45,3.3,4.2.15,8.55.3,8.55,3C96.94,45.15,93.34,48.15,90,52.05Z"/><path d="M107.89,47.7c-2.25,1.8-3.9,3.15-5.4,4.5-1.2,1-1.8,1.5-2.25,1.2-.3-.3,0-.9,1.65-2.4a120.88,120.88,0,0,1,10.65-8.4c3.9-2.7,5.85-3.3,8.7-3.3,3.15,0,3.45.45,1.65,2.4-2.7,3-5.1,5.85-8.1,9.6a68.38,68.38,0,0,0-5.25,7.35c-.9,1.65-1.05,2.7-.45,3.3s2.1.3,3.6-.45a39.75,39.75,0,0,0,6.6-4.5c3.15-2.55,4.5-3.75,6.9-6,1.35-1.2,1.95-1.8,2.4-1.35s-1.2,2-1.65,2.4c-1.8,1.8-5.55,5.1-8.55,7.5s-8.1,6.15-13,6.15c-3.15,0-4.5-1.5-4.5-3.9,0-1.95,1-3.9,2.25-5.7a79.21,79.21,0,0,1,11.25-12.9A47.73,47.73,0,0,0,107.89,47.7ZM136.39,23c-1.8,2.4-5.55,4.05-7,4.05-.75-.9-.9-3.15-.15-5.1.9-2.25,3.15-2.85,6-2.85C137.29,19.05,138.19,20.7,136.39,23Z"/><path d="M150.79,38.85c3.15,0,4.65,1.8,4.5,4-.3,3.9-5.1,6.9-9.6,9.15a61,61,0,0,1-12.15,4.65,8.93,8.93,0,0,0-.75,3.3c0,2.55.9,5,6.45,4.8,6-.15,15.3-4,19.65-6.75,9.75-6.15,12.45-11.55,12.75-15a6.34,6.34,0,0,0-.61-3.9,4.11,4.11,0,0,1,2.11-.6c2.09,0,2.84,2.25,2.69,3.75-.3,4.65-5.1,10.35-16.65,17.1-4,2.4-13.34,6.9-21.59,7.2-8,.3-12.6-1.35-12.3-7.95a14.45,14.45,0,0,1,3.45-7.95l-.15-.15c-.45.45-2.1,2-3,2.7s-1.2.75-1.5.45c-.3-.45.3-1.05.9-1.65a55.76,55.76,0,0,1,5.55-4.5,66.15,66.15,0,0,1,7.35-4.5C141.34,41.1,146.74,38.85,150.79,38.85ZM134,55.2a33.92,33.92,0,0,0,9.9-4.5c3.75-2.55,6.15-5.85,6.15-8,0-1.2-.45-2-1.8-2s-3.6,1.5-6.6,4.35A38.54,38.54,0,0,0,134,55.2Z"/><path d="M241.38,8.4c-17.39-.6-32.69,6.15-32.69,21a15.87,15.87,0,0,0,10.95,14.4c1.35.45,2,.3,1.79.75s-1.79.45-2.84.15c-7.65-2.25-12.6-8.85-12.9-15.6-.45-13.65,10.95-24.45,33.74-23.85,10.2.3,30.75,3,35.55.3,2.1-1.2,3.9-2.4,4.95-1.8.9.6-.45,1.2-1.95,2.7a106,106,0,0,0-10.8,11.85c-4.5,5.55-7.65,10.05-10.5,13.65h21.45a120.33,120.33,0,0,1,12.6-13,105.12,105.12,0,0,1,18.9-14.4c4.8-2.7,10.05-4.5,15-4.5,5.55,0,8.7,2.7,9.45,4.8.45,1.2.3,2.1-.15,2.25s-.3-.45-.75-1.35c-1.2-2.4-3.6-4.2-8.4-4.2s-9.9,2.4-13.65,5.1c-3.9,2.85-7.65,6.3-13.65,12.75-3.9,4.2-8.4,9.75-10.5,12.6,4,.15,9.3.3,12,.6,1.2.15,3.45.3,3.45.75,0,.6-2.25.45-3.3.45-5.25,0-10.2,0-13.65.15-6.75,8.55-16.35,21-16.35,26.55,0,1.8,1.35,2.55,2.85,2.55,2.55,0,6-1.35,10.65-4.65,2.1-1.5,6.3-5.1,8.55-7.05.9-.75,1.5-1,1.8-.75s0,.75-.9,1.65c-1.95,1.8-6.3,5.55-8.7,7.35s-8.1,6-13.95,6c-4.35,0-7.2-2.25-7.2-6.6,0-7.8,10.5-20.55,14.25-25.05l-21.15.15c-14.55,17.85-27.9,33.3-49.19,33.3-7.2,0-15-3.15-15-11.7a7.75,7.75,0,0,1,7.8-7.8,4.86,4.86,0,0,1,4.8,5.55,6.72,6.72,0,0,1-2.4,4.5,4.91,4.91,0,0,0-2,3.75c0,3.15,4.35,4.35,7.5,4.35,16,0,30.59-21,39.14-31.95-2.4,0-5.85.15-11.1.3-1,0-3.15.15-2.84-.75.14-.6,2.25-.75,4.34-.9,2.71-.3,6.75-.45,11.1-.6,7.95-9.6,19.8-20.85,26-24.9C267.78,9.3,257.58,9,241.38,8.4Z"/></g></g></svg>